<svg xmlns="http://www.w3.org/2000/svg" xmlns:xlink="http://www.w3.org/1999/xlink" width="75" height="98" viewBox="0 0 75 98">
  <defs>
    <clipPath id="clip-DrawTwo_Center">
      <rect width="75" height="98"/>
    </clipPath>
  </defs>
  <g id="DrawTwo_Center" clip-path="url(#clip-DrawTwo_Center)">
    <g id="Gruppe_103" data-name="Gruppe 103" transform="translate(-11 -34)">
      <path id="Pfad_72" class="fill-background" data-name="Pfad 72" d="M11,0H37A11,11,0,0,1,48,11V57A11,11,0,0,1,37,68H11A11,11,0,0,1,0,57V11A11,11,0,0,1,11,0Z" transform="translate(13 62)"/>
      <path id="Pfad_72_-_Kontur" data-name="Pfad 72 - Kontur" d="M11,2a9.01,9.01,0,0,0-9,9V57a9.01,9.01,0,0,0,9,9H37a9.01,9.01,0,0,0,9-9V11a9.01,9.01,0,0,0-9-9H11m0-2H37A11,11,0,0,1,48,11V57A11,11,0,0,1,37,68H11A11,11,0,0,1,0,57V11A11,11,0,0,1,11,0Z" transform="translate(13 62)" fill="#fff"/>
      <rect id="Rechteck_85"  class="fill-background" data-name="Rechteck 85" width="48" height="68" rx="11" transform="translate(36 36)"/>
      <path id="Rechteck_85_-_Kontur" data-name="Rechteck 85 - Kontur" d="M11,2a9.01,9.01,0,0,0-9,9V57a9.01,9.01,0,0,0,9,9H37a9.01,9.01,0,0,0,9-9V11a9.01,9.01,0,0,0-9-9H11m0-2H37A11,11,0,0,1,48,11V57A11,11,0,0,1,37,68H11A11,11,0,0,1,0,57V11A11,11,0,0,1,11,0Z" transform="translate(36 36)" fill="#fff"/>
    </g>
  </g>
</svg>
