<svg xmlns="http://www.w3.org/2000/svg" xmlns:xlink="http://www.w3.org/1999/xlink" width="76" height="102" viewBox="0 0 76 102">
  <defs>
    <clipPath id="clip-Reverse_Corner">
      <rect width="76" height="102"/>
    </clipPath>
  </defs>
  <g id="Reverse_Corner" clip-path="url(#clip-Reverse_Corner)">
    <path id="Vereinigungsmenge_25" data-name="Vereinigungsmenge 25" d="M3162.647-5378.916a31.263,31.263,0,0,1-9.948-6.587c-.11-.107-.218-.214-.325-.322a5.263,5.263,0,0,1-1.733-3.835,4.982,4.982,0,0,1,5.064-4.882,4.9,4.9,0,0,1,3.462,1.467l.011-.011c.2.21.4.418.609.623a21.341,21.341,0,0,0,15.043,6.129,21.117,21.117,0,0,0,21.282-20.9h0v-22.744H3188.6l12.519-24.586,12.52,24.586h-7.512v23.357h-.005a30.051,30.051,0,0,1-2.454,11.35,30.574,30.574,0,0,1-6.708,9.769,31.241,31.241,0,0,1-9.948,6.587,31.609,31.609,0,0,1-12.182,2.416A31.622,31.622,0,0,1,3162.647-5378.916ZM3140-5423.521h7.511v-23.358h.006a30.025,30.025,0,0,1,2.453-11.349,30.608,30.608,0,0,1,6.708-9.77,31.23,31.23,0,0,1,9.948-6.587A31.611,31.611,0,0,1,3178.81-5477a31.615,31.615,0,0,1,12.184,2.415,31.265,31.265,0,0,1,9.948,6.587c.109.108.217.217.324.324a5.262,5.262,0,0,1,1.734,3.835,4.982,4.982,0,0,1-5.065,4.881,4.9,4.9,0,0,1-3.462-1.467l-.011.011c-.2-.208-.4-.417-.609-.623a21.339,21.339,0,0,0-15.043-6.127,21.117,21.117,0,0,0-21.283,20.9h0v22.744h7.512l-12.519,24.587Z" transform="translate(-3138.641 5477.75)" fill="currentColor"/>
    <path id="Vereinigungsmenge_25_-_Kontur" data-name="Vereinigungsmenge 25 - Kontur" d="M3174.832-5377.5a30.616,30.616,0,0,0,11.8-2.339,30.251,30.251,0,0,0,9.632-6.377,29.583,29.583,0,0,0,6.49-9.451,29.077,29.077,0,0,0,2.372-10.974l.005-.26v-24.077h6.881l-10.889-21.382-10.888,21.382h6.88v23.745a22.119,22.119,0,0,1-22.282,21.9,22.338,22.338,0,0,1-15.674-6.347l0,0-.691-.69a3.9,3.9,0,0,0-2.756-1.175,3.981,3.981,0,0,0-4.064,3.882,4.241,4.241,0,0,0,1.409,3.1l.034.032c.124.125.221.221.316.313a30.263,30.263,0,0,0,9.63,6.376,30.627,30.627,0,0,0,11.8,2.339m-22.312-23.639,10.888-21.383h-6.881v-23.745a22.118,22.118,0,0,1,22.283-21.9,22.335,22.335,0,0,1,15.657,6.33l0,0,.708.707a3.9,3.9,0,0,0,2.755,1.175,3.98,3.98,0,0,0,4.065-3.881,4.238,4.238,0,0,0-1.41-3.1l-.031-.029-.115-.115-.2-.2a30.273,30.273,0,0,0-9.631-6.376,30.615,30.615,0,0,0-11.8-2.339,30.611,30.611,0,0,0-11.8,2.338,30.238,30.238,0,0,0-9.631,6.377,29.613,29.613,0,0,0-6.49,9.452,29.04,29.04,0,0,0-2.372,10.973l-.006.3v24.038h-6.88l10.888,21.383m22.312,24.639a31.622,31.622,0,0,1-12.184-2.416,31.263,31.263,0,0,1-9.948-6.587c-.11-.107-.218-.214-.325-.322a5.263,5.263,0,0,1-1.733-3.835,4.982,4.982,0,0,1,5.064-4.882,4.9,4.9,0,0,1,3.462,1.467l.011-.011c.2.21.4.418.609.623a21.341,21.341,0,0,0,15.043,6.129,21.117,21.117,0,0,0,21.282-20.9v-22.745H3188.6l12.519-24.586,12.52,24.586h-7.512v23.357h-.005a30.051,30.051,0,0,1-2.454,11.35,30.574,30.574,0,0,1-6.708,9.769,31.241,31.241,0,0,1-9.948,6.587A31.609,31.609,0,0,1,3174.832-5376.5Zm-22.312-22.435L3140-5423.521h7.511v-23.358h.006a30.025,30.025,0,0,1,2.453-11.349,30.608,30.608,0,0,1,6.708-9.77,31.23,31.23,0,0,1,9.948-6.587A31.611,31.611,0,0,1,3178.81-5477a31.615,31.615,0,0,1,12.184,2.415,31.265,31.265,0,0,1,9.948,6.587c.109.108.217.217.324.324a5.262,5.262,0,0,1,1.734,3.835,4.982,4.982,0,0,1-5.065,4.881,4.9,4.9,0,0,1-3.462-1.467l-.011.011c-.2-.208-.4-.417-.609-.623a21.339,21.339,0,0,0-15.043-6.127,21.117,21.117,0,0,0-21.283,20.9v22.745h7.512Z" transform="translate(-3138.641 5477.75)" fill="currentColor"/>
  </g>
</svg>
