<svg xmlns="http://www.w3.org/2000/svg" xmlns:xlink="http://www.w3.org/1999/xlink" width="73" height="101" viewBox="0 0 73 101">
  <defs>
    <clipPath id="clip-Reverse_Center">
      <rect width="73" height="101"/>
    </clipPath>
  </defs>
  <g id="Reverse_Center" clip-path="url(#clip-Reverse_Center)">
    <path id="Vereinigungsmenge_20" data-name="Vereinigungsmenge 20" d="M3173.845-5379.432a28.217,28.217,0,0,0,11.057-2.234,28.32,28.32,0,0,0,9.032-6.1,28.343,28.343,0,0,0,6.091-9.043,28.285,28.285,0,0,0,2.227-10.5l.005-.271v-24.832h6.065l-8.93-17.883-8.93,17.883h6.064v24.533a22.718,22.718,0,0,1-22.679,22.706,22.491,22.491,0,0,1-15.137-5.809l-.033.037-1.477-1.5a2.72,2.72,0,0,0-1.937-.855,2.883,2.883,0,0,0-2.921,2.836,3.271,3.271,0,0,0,1.05,2.337l.07.069q.146.152.295.3a28.345,28.345,0,0,0,9.031,6.1,28.23,28.23,0,0,0,11.059,2.234m-21.68-24.7,8.93-17.882h-6.065v-24.534a22.718,22.718,0,0,1,22.68-22.705,22.491,22.491,0,0,1,15.185,5.852l.03-.031,1.43,1.455a2.724,2.724,0,0,0,1.938.855,2.882,2.882,0,0,0,2.921-2.836,3.275,3.275,0,0,0-1.05-2.338l-.062-.061-.07-.071-.229-.232,0,0a28.324,28.324,0,0,0-9.031-6.1,28.216,28.216,0,0,0-11.058-2.235,28.2,28.2,0,0,0-11.058,2.235,28.3,28.3,0,0,0-9.032,6.1,28.357,28.357,0,0,0-6.09,9.042,28.274,28.274,0,0,0-2.227,10.5l-.005.286v24.818h-6.064l8.93,17.882m21.68,26.7a30.215,30.215,0,0,1-11.839-2.393,30.339,30.339,0,0,1-9.667-6.526q-.159-.16-.315-.321a5.256,5.256,0,0,1-1.685-3.8,4.886,4.886,0,0,1,4.921-4.836,4.718,4.718,0,0,1,3.364,1.454l.011-.012c.192.208.392.415.592.617a20.528,20.528,0,0,0,14.617,6.072,20.716,20.716,0,0,0,20.679-20.706v-22.533h-7.3l12.165-24.359,12.165,24.359h-7.3v23.142h-.006a30.264,30.264,0,0,1-2.384,11.244,30.343,30.343,0,0,1-6.518,9.679,30.315,30.315,0,0,1-9.667,6.526A30.2,30.2,0,0,1,3173.845-5377.432Zm-21.68-22.227L3140-5424.018h7.3v-23.142h.006a30.25,30.25,0,0,1,2.384-11.244,30.351,30.351,0,0,1,6.518-9.678,30.3,30.3,0,0,1,9.667-6.526,30.2,30.2,0,0,1,11.838-2.393,30.2,30.2,0,0,1,11.838,2.393,30.312,30.312,0,0,1,9.667,6.526c.106.106.211.213.315.32a5.258,5.258,0,0,1,1.685,3.8,4.886,4.886,0,0,1-4.921,4.836,4.721,4.721,0,0,1-3.365-1.453l-.01.011c-.192-.208-.391-.414-.592-.617a20.528,20.528,0,0,0-14.616-6.071,20.716,20.716,0,0,0-20.68,20.705v22.534h7.3Z" transform="translate(-3139.278 5477.716)" fill="currentColor"/>
  </g>
</svg>
