<svg xmlns="http://www.w3.org/2000/svg" xmlns:xlink="http://www.w3.org/1999/xlink" width="129" height="129" viewBox="0 0 129 129">
  <defs>
    <clipPath id="clip-Wild_Center">
      <rect width="129" height="129"/>
    </clipPath>
  </defs>
  <g id="Wild_Center" clip-path="url(#clip-Wild_Center)">
    <g id="Gruppe_106" data-name="Gruppe 106">
      <path id="Differenzmenge_40" class="fill-blue" data-name="Differenzmenge 40" d="M2609.02-6531H2604a58.631,58.631,0,0,1,4.636-22.965,58.8,58.8,0,0,1,12.644-18.753,58.8,58.8,0,0,1,18.754-12.645A58.63,58.63,0,0,1,2663-6590v5.021A55.463,55.463,0,0,0,2609.02-6531Z" transform="translate(-2600 6594)"/>
      <path id="Differenzmenge_41" class="fill-yellow" data-name="Differenzmenge 41" d="M2720-6531h-5.021A55.462,55.462,0,0,0,2661-6584.979V-6590a58.632,58.632,0,0,1,22.965,4.636,58.807,58.807,0,0,1,18.754,12.644,58.8,58.8,0,0,1,12.644,18.754A58.63,58.63,0,0,1,2720-6531Z" transform="translate(-2595 6594)"/>
      <path id="Differenzmenge_45" class="fill-green" data-name="Differenzmenge 45" d="M2809-6533h59v59A59,59,0,0,1,2809-6533Z" transform="translate(-2805 6599)"/>
      <path id="Differenzmenge_45_-_Kontur" class="fill-green" data-name="Differenzmenge 45 - Kontur" d="M2813.141-6529a54.469,54.469,0,0,0,4.179,17.407,54.99,54.99,0,0,0,5.071,9.341,55.379,55.379,0,0,0,6.719,8.143,55.417,55.417,0,0,0,8.143,6.719,55.028,55.028,0,0,0,9.341,5.071,54.479,54.479,0,0,0,17.407,4.179V-6529h-50.858m-4.142-4h59v59A59,59,0,0,1,2809-6533Z" transform="translate(-2805 6599)"/>
      <path id="Differenzmenge_42" class="fill-red" data-name="Differenzmenge 42" d="M2661-6474h0v-5.019a55.462,55.462,0,0,0,53.98-53.979H2720a58.633,58.633,0,0,1-4.636,22.965,58.794,58.794,0,0,1-12.644,18.753,58.791,58.791,0,0,1-18.754,12.644A58.637,58.637,0,0,1,2661-6474Z" transform="translate(-2595 6599)"/>
      <path id="Differenzmenge_42_-_Kontur" class="fill-red" data-name="Differenzmenge 42 - Kontur" d="M2661-6474h0v-5.019a55.462,55.462,0,0,0,53.98-53.979H2720a58.633,58.633,0,0,1-4.636,22.965,58.794,58.794,0,0,1-12.644,18.753,58.791,58.791,0,0,1-18.754,12.644A58.637,58.637,0,0,1,2661-6474Z" transform="translate(-2595 6599)"/>
    </g>
  </g>
</svg>
