<svg xmlns="http://www.w3.org/2000/svg" xmlns:xlink="http://www.w3.org/1999/xlink" width="129" height="129" viewBox="0 0 129 129">
  <defs>
    <clipPath id="clip-Wild_Center">
      <rect width="129" height="129"/>
    </clipPath>
  </defs>
  <g id="Wild_Center" clip-path="url(#clip-Wild_Center)">
    <g id="Gruppe_106" data-name="Gruppe 106">
      <path id="Differenzmenge_40" data-name="Differenzmenge 40" d="M2609.02-6531H2604a58.631,58.631,0,0,1,4.636-22.965,58.8,58.8,0,0,1,12.644-18.753,58.8,58.8,0,0,1,18.754-12.645A58.63,58.63,0,0,1,2663-6590v5.021A55.463,55.463,0,0,0,2609.02-6531Z" transform="translate(-2600 6594)" fill="#1f6bff"/>
      <path id="Differenzmenge_41" data-name="Differenzmenge 41" d="M2720-6531h-5.021A55.462,55.462,0,0,0,2661-6584.979V-6590a58.632,58.632,0,0,1,22.965,4.636,58.807,58.807,0,0,1,18.754,12.644,58.8,58.8,0,0,1,12.644,18.754A58.63,58.63,0,0,1,2720-6531Z" transform="translate(-2595 6594)" fill="#f0ff1f"/>
      <path id="Differenzmenge_39" data-name="Differenzmenge 39" d="M2663-6474h0a58.636,58.636,0,0,1-22.965-4.636,58.807,58.807,0,0,1-18.754-12.644,58.8,58.8,0,0,1-12.644-18.753A58.64,58.64,0,0,1,2604-6533h5.02a55.463,55.463,0,0,0,53.981,53.98V-6474Z" transform="translate(-2600 6599)" fill="#2eff1f"/>
      <path id="Differenzmenge_39_-_Kontur" data-name="Differenzmenge 39 - Kontur" d="M2663-6474h0a58.636,58.636,0,0,1-22.965-4.636,58.807,58.807,0,0,1-18.754-12.644,58.8,58.8,0,0,1-12.644-18.753A58.64,58.64,0,0,1,2604-6533h5.02a55.463,55.463,0,0,0,53.981,53.98Z" transform="translate(-2600 6599)" fill="#2eff1f"/>
      <path id="Differenzmenge_42" data-name="Differenzmenge 42" d="M2661-6474h0v-5.019a55.462,55.462,0,0,0,53.98-53.979H2720a58.633,58.633,0,0,1-4.636,22.965,58.794,58.794,0,0,1-12.644,18.753,58.791,58.791,0,0,1-18.754,12.644A58.637,58.637,0,0,1,2661-6474Z" transform="translate(-2595 6599)" fill="#ff1f1f"/>
      <path id="Differenzmenge_42_-_Kontur" data-name="Differenzmenge 42 - Kontur" d="M2661-6474h0v-5.019a55.462,55.462,0,0,0,53.98-53.979H2720a58.633,58.633,0,0,1-4.636,22.965,58.794,58.794,0,0,1-12.644,18.753,58.791,58.791,0,0,1-18.754,12.644A58.637,58.637,0,0,1,2661-6474Z" transform="translate(-2595 6599)" fill="#ff1f1f"/>
    </g>
  </g>
</svg>
