<svg id="add-group" xmlns="http://www.w3.org/2000/svg" width="45" height="24.379" viewBox="0 0 45 24.379">
  <path id="Pfad_29" data-name="Pfad 29" d="M0,0H45V24.379H0Z" fill="none"/>
  <path id="Pfad_30" data-name="Pfad 30" d="M13.125,14.375H9.375v-3.75a1.875,1.875,0,1,0-3.75,0v3.75H1.875a1.875,1.875,0,1,0,0,3.75h3.75v3.75a1.875,1.875,0,1,0,3.75,0v-3.75h3.75a1.875,1.875,0,0,0,0-3.75ZM33.75,16.25A5.625,5.625,0,1,0,32.044,5.263a9.252,9.252,0,0,1,1.688,5.363,9.434,9.434,0,0,1-1.687,5.362A5.606,5.606,0,0,0,33.75,16.25Zm-9.375,0a5.625,5.625,0,1,0-5.625-5.625A5.6,5.6,0,0,0,24.375,16.25Zm0,3.75c-3.75,0-11.25,1.875-11.25,5.625V27.5A1.881,1.881,0,0,0,15,29.375H33.75A1.881,1.881,0,0,0,35.625,27.5V25.625C35.625,21.875,28.125,20,24.375,20Zm12.413.3a6.937,6.937,0,0,1,2.587,5.325v2.813a5.126,5.126,0,0,1-.094.937h4.781A.928.928,0,0,0,45,28.438V25.625C45,22.738,40.556,20.956,36.788,20.3Z" transform="translate(0 -4.998)" fill="#fff"/>
</svg>
