<?xml version="1.0" encoding="utf-8"?>
<!-- Svg Vector Icons : http://www.onlinewebfonts.com/icon -->
<!DOCTYPE svg PUBLIC "-//W3C//DTD SVG 1.1//EN" "http://www.w3.org/Graphics/SVG/1.1/DTD/svg11.dtd">
<svg version="1.1" xmlns="http://www.w3.org/2000/svg" xmlns:xlink="http://www.w3.org/1999/xlink" x="0px" y="0px" viewBox="0 0 1000 1000" enable-background="new 0 0 1000 1000" xml:space="preserve" fill="white">
<metadata> Svg Vector Icons : http://www.onlinewebfonts.com/icon </metadata>
<g><g transform="translate(0.000000,507.000000) scale(0.100000,-0.100000)"><path d="M8872.7,4891.2c-189.5-42.1-327.4-126.4-520.8-325.5c-166.6-168.5-174.2-180-174.2-260.4v-84.2l513.1-511.2l511.2-513.1h95.7c91.9,0,93.8,1.9,266.1,178.1c187.6,191.5,262.3,308.3,308.2,482.5c74.7,291-1.9,572.5-214.4,796.5c-118.7,124.4-285.3,214.4-453.8,245.1C9064.1,4925.7,9022,4923.8,8872.7,4891.2z"/><path d="M2119.9,4228.8c-882.6-128.3-1648.5-786.9-1916.5-1644.6C96.2,2235.7,96.2,2260.6,102-379.6l5.7-2425.8l51.7-183.8c132.1-482.5,317.8-800.3,660.5-1127.7c342.7-329.3,746.7-534.2,1231.1-626.1c168.5-32.6,361.9-34.5,2699.6-34.5c2337.7,0,2531.1,1.9,2699.6,34.5c239.3,46,484.4,128.3,695,237.4c551.4,285.3,1003.3,827.1,1167.9,1403.4c88.1,306.3,90,338.9,90,2333.9v1887.8l-582-582L8237-46.5l-5.7-1301.9c-5.7-1284.7-7.6-1305.8-47.9-1428.3c-65.1-189.6-172.3-354.2-325.5-495.9c-157-147.4-317.8-235.5-536.1-291c-147.4-36.4-210.6-36.4-2621.1-32.5l-2467.9,5.7l-162.7,59.3c-202.9,72.8-348.5,166.6-492.1,319.7c-128.3,137.9-222.1,302.5-264.2,463.3c-42.1,166.6-44,4767.3,0,4930.1c80.4,308.2,325.5,612.7,603.1,752.4c281.5,141.7,199.1,134,1734.6,141.7l1378.5,7.7l583.9,584l582,582l-1981.6-1.9C3125.1,4246,2181.2,4238.3,2119.9,4228.8z"/><path d="M7517.2,3704.2c-32.6-17.2-855.8-829-1832.3-1805.5C4271.9,485.7,3910.1,110.5,3898.6,62.6c-7.7-40.2-1.9-84.2,19.1-126.4c15.3-34.5,247-281.4,515-545.7l484.4-482.5h93.8h93.8l1794,1794c1219.6,1219.6,1801.6,1815,1815,1855.2c13.4,42.1,13.4,76.6,0,114.9c-23,63.2-938.1,989.8-1018.6,1033.9C7630.1,3740.6,7589.9,3738.6,7517.2,3704.2z"/><path d="M3307-712.8c-32.6-30.6-135.9-248.9-317.8-679.7c-147.4-348.4-268-649-268-666.3c0-90,113-201,206.8-201c57.4,0,1290.4,528.4,1336.4,572.5s65.1,111,51.7,181.9c-5.7,26.8-170.4,204.9-405.9,440.4c-388.7,386.8-398.2,394.4-474.8,394.4C3379.7-670.7,3339.5-684.1,3307-712.8z"/></g></g>
</svg>